<mxfile host="Electron" modified="2023-05-11T04:21:52.694Z" agent="Mozilla/5.0 (Macintosh; Intel Mac OS X 10_15_7) AppleWebKit/537.36 (KHTML, like Gecko) draw.io/21.2.8 Chrome/112.0.5615.165 Electron/24.2.0 Safari/537.36" etag="Er9d_s4FoSrnxFHItImr" version="21.2.8" type="device" pages="4">
  <diagram id="UKiqSwgzYUdAOzk66Ca8" name="마감된 채용정보 내역 조회">
    <mxGraphModel dx="2638" dy="667" grid="1" gridSize="10" guides="1" tooltips="1" connect="1" arrows="1" fold="1" page="1" pageScale="1" pageWidth="827" pageHeight="1169" math="0" shadow="0">
      <root>
        <mxCell id="0" />
        <mxCell id="1" parent="0" />
        <mxCell id="d3JXeu0ggXESFEbP5JPl-1" value=":CompanyMember" style="shape=umlActor;verticalLabelPosition=bottom;verticalAlign=top;html=1;" vertex="1" parent="1">
          <mxGeometry x="-1050" y="150" width="30" height="60" as="geometry" />
        </mxCell>
        <mxCell id="d3JXeu0ggXESFEbP5JPl-2" value=":ShowClosedRecruitment" style="html=1;" vertex="1" parent="1">
          <mxGeometry x="-600" y="150" width="150" height="50" as="geometry" />
        </mxCell>
        <mxCell id="d3JXeu0ggXESFEbP5JPl-3" value=":&amp;nbsp;ShowClosedRecruitment&lt;br&gt;UI" style="html=1;" vertex="1" parent="1">
          <mxGeometry x="-910" y="150" width="150" height="50" as="geometry" />
        </mxCell>
        <mxCell id="d3JXeu0ggXESFEbP5JPl-4" value="" style="endArrow=none;html=1;rounded=0;" edge="1" parent="1" source="d3JXeu0ggXESFEbP5JPl-1">
          <mxGeometry width="50" height="50" relative="1" as="geometry">
            <mxPoint x="-290" y="450" as="sourcePoint" />
            <mxPoint x="-910" y="180" as="targetPoint" />
            <Array as="points">
              <mxPoint x="-940" y="180" />
            </Array>
          </mxGeometry>
        </mxCell>
        <mxCell id="d3JXeu0ggXESFEbP5JPl-5" value="" style="endArrow=none;html=1;rounded=0;exitX=1;exitY=0.5;exitDx=0;exitDy=0;entryX=0;entryY=0.5;entryDx=0;entryDy=0;" edge="1" parent="1" source="d3JXeu0ggXESFEbP5JPl-3" target="d3JXeu0ggXESFEbP5JPl-2">
          <mxGeometry width="50" height="50" relative="1" as="geometry">
            <mxPoint x="-290" y="450" as="sourcePoint" />
            <mxPoint x="-240" y="400" as="targetPoint" />
          </mxGeometry>
        </mxCell>
        <mxCell id="d3JXeu0ggXESFEbP5JPl-6" value="" style="endArrow=none;html=1;rounded=0;entryX=0.5;entryY=1;entryDx=0;entryDy=0;exitX=0.5;exitY=0;exitDx=0;exitDy=0;" edge="1" parent="1" source="d3JXeu0ggXESFEbP5JPl-7" target="d3JXeu0ggXESFEbP5JPl-2">
          <mxGeometry width="50" height="50" relative="1" as="geometry">
            <mxPoint x="-675.0000000000005" y="290" as="sourcePoint" />
            <mxPoint x="-240" y="470" as="targetPoint" />
          </mxGeometry>
        </mxCell>
        <mxCell id="d3JXeu0ggXESFEbP5JPl-7" value=":Recruitment" style="html=1;" vertex="1" parent="1">
          <mxGeometry x="-493" y="290" width="110" height="50" as="geometry" />
        </mxCell>
        <mxCell id="d3JXeu0ggXESFEbP5JPl-8" value="2 : *[For all company member&#39;s closed recruitments]: getRecruitmentInfor()" style="text;html=1;strokeColor=none;fillColor=none;align=center;verticalAlign=middle;whiteSpace=wrap;rounded=0;" vertex="1" parent="1">
          <mxGeometry x="-455" y="220" width="300" height="30" as="geometry" />
        </mxCell>
        <mxCell id="d3JXeu0ggXESFEbP5JPl-9" value="" style="endArrow=classic;html=1;rounded=0;" edge="1" parent="1">
          <mxGeometry width="50" height="50" relative="1" as="geometry">
            <mxPoint x="-480" y="210" as="sourcePoint" />
            <mxPoint x="-433" y="260" as="targetPoint" />
          </mxGeometry>
        </mxCell>
        <mxCell id="d3JXeu0ggXESFEbP5JPl-10" value="1 : listClosedRecruitments()" style="text;html=1;strokeColor=none;fillColor=none;align=center;verticalAlign=middle;whiteSpace=wrap;rounded=0;" vertex="1" parent="1">
          <mxGeometry x="-790" y="220" width="180" height="30" as="geometry" />
        </mxCell>
        <mxCell id="d3JXeu0ggXESFEbP5JPl-11" value=":CompanyMember" style="html=1;" vertex="1" parent="1">
          <mxGeometry x="-710" y="290" width="110" height="50" as="geometry" />
        </mxCell>
        <mxCell id="d3JXeu0ggXESFEbP5JPl-12" value="" style="endArrow=none;html=1;rounded=0;exitX=0.5;exitY=0;exitDx=0;exitDy=0;" edge="1" parent="1" source="d3JXeu0ggXESFEbP5JPl-11">
          <mxGeometry width="50" height="50" relative="1" as="geometry">
            <mxPoint x="-720" y="310" as="sourcePoint" />
            <mxPoint x="-525" y="200" as="targetPoint" />
          </mxGeometry>
        </mxCell>
        <mxCell id="d3JXeu0ggXESFEbP5JPl-13" value="" style="endArrow=classic;html=1;rounded=0;" edge="1" parent="1">
          <mxGeometry width="50" height="50" relative="1" as="geometry">
            <mxPoint x="-580" y="220" as="sourcePoint" />
            <mxPoint x="-635" y="255" as="targetPoint" />
            <Array as="points">
              <mxPoint x="-610" y="240" />
            </Array>
          </mxGeometry>
        </mxCell>
        <mxCell id="d3JXeu0ggXESFEbP5JPl-14" value="3 : startInterface()" style="html=1;verticalAlign=bottom;endArrow=block;edgeStyle=elbowEdgeStyle;elbow=vertical;curved=0;rounded=0;" edge="1" parent="1">
          <mxGeometry x="-0.0017" y="22" width="80" relative="1" as="geometry">
            <mxPoint x="-665" y="190.23000000000002" as="sourcePoint" />
            <mxPoint x="-735" y="190.23000000000002" as="targetPoint" />
            <mxPoint as="offset" />
          </mxGeometry>
        </mxCell>
      </root>
    </mxGraphModel>
  </diagram>
  <diagram id="AVO9UJF0FYT00bxt_NQh" name="채용정보 통계 보기">
    <mxGraphModel dx="2638" dy="667" grid="1" gridSize="10" guides="1" tooltips="1" connect="1" arrows="1" fold="1" page="1" pageScale="1" pageWidth="827" pageHeight="1169" math="0" shadow="0">
      <root>
        <mxCell id="0" />
        <mxCell id="1" parent="0" />
        <mxCell id="HPDKvppT-sNSgEYxxZ2M-16" value="&lt;br&gt;:Company&lt;br&gt;Member" style="shape=umlActor;verticalLabelPosition=bottom;verticalAlign=top;html=1;" vertex="1" parent="1">
          <mxGeometry x="-920" y="340" width="30" height="60" as="geometry" />
        </mxCell>
        <mxCell id="HPDKvppT-sNSgEYxxZ2M-17" value=":ShowRecruitmentStatistics" style="html=1;" vertex="1" parent="1">
          <mxGeometry x="-505" y="345" width="150" height="50" as="geometry" />
        </mxCell>
        <mxCell id="HPDKvppT-sNSgEYxxZ2M-18" value=":ShowRecruitmentStatistics&lt;br&gt;UI" style="html=1;" vertex="1" parent="1">
          <mxGeometry x="-820" y="345" width="150" height="50" as="geometry" />
        </mxCell>
        <mxCell id="HPDKvppT-sNSgEYxxZ2M-19" value="" style="endArrow=none;html=1;rounded=0;" edge="1" parent="1">
          <mxGeometry width="50" height="50" relative="1" as="geometry">
            <mxPoint x="-900" y="368" as="sourcePoint" />
            <mxPoint x="-820" y="368" as="targetPoint" />
            <Array as="points">
              <mxPoint x="-850" y="368" />
            </Array>
          </mxGeometry>
        </mxCell>
        <mxCell id="HPDKvppT-sNSgEYxxZ2M-20" value="" style="endArrow=none;html=1;rounded=0;exitX=1;exitY=0.5;exitDx=0;exitDy=0;entryX=0;entryY=0.5;entryDx=0;entryDy=0;" edge="1" parent="1" target="HPDKvppT-sNSgEYxxZ2M-17">
          <mxGeometry width="50" height="50" relative="1" as="geometry">
            <mxPoint x="-670" y="369.4100000000001" as="sourcePoint" />
            <mxPoint x="-510" y="369.4100000000001" as="targetPoint" />
          </mxGeometry>
        </mxCell>
        <mxCell id="HPDKvppT-sNSgEYxxZ2M-21" value="" style="endArrow=none;html=1;rounded=0;exitX=0.5;exitY=0;exitDx=0;exitDy=0;" edge="1" parent="1">
          <mxGeometry width="50" height="50" relative="1" as="geometry">
            <mxPoint x="-630" y="505" as="sourcePoint" />
            <mxPoint x="-435" y="395" as="targetPoint" />
          </mxGeometry>
        </mxCell>
        <mxCell id="HPDKvppT-sNSgEYxxZ2M-22" value=":CompanyMember" style="html=1;" vertex="1" parent="1">
          <mxGeometry x="-690" y="505" width="110" height="50" as="geometry" />
        </mxCell>
        <mxCell id="HPDKvppT-sNSgEYxxZ2M-23" value="" style="endArrow=classic;html=1;rounded=0;" edge="1" parent="1">
          <mxGeometry width="50" height="50" relative="1" as="geometry">
            <mxPoint x="-520" y="422.5" as="sourcePoint" />
            <mxPoint x="-575" y="457.5" as="targetPoint" />
            <Array as="points">
              <mxPoint x="-550" y="442.5" />
            </Array>
          </mxGeometry>
        </mxCell>
        <mxCell id="HPDKvppT-sNSgEYxxZ2M-24" value="1 : getRecruitmentStatistics()" style="text;html=1;strokeColor=none;fillColor=none;align=center;verticalAlign=middle;whiteSpace=wrap;rounded=0;" vertex="1" parent="1">
          <mxGeometry x="-730" y="425" width="170" height="30" as="geometry" />
        </mxCell>
        <mxCell id="HPDKvppT-sNSgEYxxZ2M-25" value=":Recruitment" style="html=1;" vertex="1" parent="1">
          <mxGeometry x="-340" y="505" width="110" height="50" as="geometry" />
        </mxCell>
        <mxCell id="HPDKvppT-sNSgEYxxZ2M-26" value="" style="endArrow=none;html=1;rounded=0;exitX=0.461;exitY=-0.051;exitDx=0;exitDy=0;entryX=0.469;entryY=1.088;entryDx=0;entryDy=0;entryPerimeter=0;exitPerimeter=0;" edge="1" parent="1" source="HPDKvppT-sNSgEYxxZ2M-25" target="HPDKvppT-sNSgEYxxZ2M-17">
          <mxGeometry width="50" height="50" relative="1" as="geometry">
            <mxPoint x="-340" y="529.4100000000001" as="sourcePoint" />
            <mxPoint x="-527" y="529.4100000000001" as="targetPoint" />
          </mxGeometry>
        </mxCell>
        <mxCell id="HPDKvppT-sNSgEYxxZ2M-27" value="" style="endArrow=classic;html=1;rounded=0;" edge="1" parent="1">
          <mxGeometry width="50" height="50" relative="1" as="geometry">
            <mxPoint x="-390" y="405" as="sourcePoint" />
            <mxPoint x="-290" y="485" as="targetPoint" />
          </mxGeometry>
        </mxCell>
        <mxCell id="HPDKvppT-sNSgEYxxZ2M-28" value="2 : *[For all company member&#39;s job postings]: getNumberOfApplicants()" style="text;html=1;strokeColor=none;fillColor=none;align=center;verticalAlign=middle;whiteSpace=wrap;rounded=0;" vertex="1" parent="1">
          <mxGeometry x="-360" y="405" width="300" height="30" as="geometry" />
        </mxCell>
        <mxCell id="HPDKvppT-sNSgEYxxZ2M-29" value="3 :startInterface()" style="html=1;verticalAlign=bottom;endArrow=block;edgeStyle=elbowEdgeStyle;elbow=vertical;curved=0;rounded=0;" edge="1" parent="1">
          <mxGeometry x="-0.0099" y="22" width="80" relative="1" as="geometry">
            <mxPoint x="-570" y="384.35" as="sourcePoint" />
            <mxPoint x="-640" y="384.35" as="targetPoint" />
            <mxPoint as="offset" />
          </mxGeometry>
        </mxCell>
      </root>
    </mxGraphModel>
  </diagram>
  <diagram id="3UZCnN8oSw5aZ40X7Pi-" name="지원">
    <mxGraphModel dx="1811" dy="667" grid="1" gridSize="10" guides="1" tooltips="1" connect="1" arrows="1" fold="1" page="1" pageScale="1" pageWidth="827" pageHeight="1169" math="0" shadow="0">
      <root>
        <mxCell id="0" />
        <mxCell id="1" parent="0" />
        <mxCell id="q8DaPrd-86enB6CMFzL0-1" value="4 : apply()" style="text;html=1;strokeColor=none;fillColor=none;align=center;verticalAlign=middle;whiteSpace=wrap;rounded=0;" vertex="1" parent="1">
          <mxGeometry x="-735" y="110" width="70" height="20" as="geometry" />
        </mxCell>
        <mxCell id="q8DaPrd-86enB6CMFzL0-2" value="4.1.1 : apply()" style="text;html=1;strokeColor=none;fillColor=none;align=center;verticalAlign=middle;whiteSpace=wrap;rounded=0;" vertex="1" parent="1">
          <mxGeometry x="-318" y="220" width="100" height="30" as="geometry" />
        </mxCell>
        <mxCell id="q8DaPrd-86enB6CMFzL0-3" value="&lt;span style=&quot;color: rgb(0, 0, 0); font-family: Helvetica; font-size: 11px; font-style: normal; font-variant-ligatures: normal; font-variant-caps: normal; font-weight: 400; letter-spacing: normal; orphans: 2; text-align: center; text-indent: 0px; text-transform: none; widows: 2; word-spacing: 0px; -webkit-text-stroke-width: 0px; background-color: rgb(255, 255, 255); text-decoration-thickness: initial; text-decoration-style: initial; text-decoration-color: initial; float: none; display: inline !important;&quot;&gt;4.1 : apply()&lt;/span&gt;" style="text;whiteSpace=wrap;html=1;" vertex="1" parent="1">
          <mxGeometry x="-550" y="100" width="70" height="20" as="geometry" />
        </mxCell>
        <mxCell id="q8DaPrd-86enB6CMFzL0-4" value="3.1 :showRecruitmentDetails()" style="text;html=1;strokeColor=none;fillColor=none;align=center;verticalAlign=middle;whiteSpace=wrap;rounded=0;" vertex="1" parent="1">
          <mxGeometry x="-575" y="90" width="170" height="20" as="geometry" />
        </mxCell>
        <mxCell id="q8DaPrd-86enB6CMFzL0-5" style="edgeStyle=orthogonalEdgeStyle;rounded=0;orthogonalLoop=1;jettySize=auto;html=1;exitX=0.5;exitY=1;exitDx=0;exitDy=0;" edge="1" parent="1" source="q8DaPrd-86enB6CMFzL0-4" target="q8DaPrd-86enB6CMFzL0-4">
          <mxGeometry relative="1" as="geometry" />
        </mxCell>
        <mxCell id="q8DaPrd-86enB6CMFzL0-6" value="3.1.1 : getRecruitmentDetails()" style="text;html=1;strokeColor=none;fillColor=none;align=center;verticalAlign=middle;whiteSpace=wrap;rounded=0;" vertex="1" parent="1">
          <mxGeometry x="-370" y="100" width="170" height="20" as="geometry" />
        </mxCell>
        <mxCell id="q8DaPrd-86enB6CMFzL0-7" value="3 : selectRecruitment()" style="text;html=1;strokeColor=none;fillColor=none;align=center;verticalAlign=middle;whiteSpace=wrap;rounded=0;" vertex="1" parent="1">
          <mxGeometry x="-760" y="90" width="130" height="20" as="geometry" />
        </mxCell>
        <mxCell id="q8DaPrd-86enB6CMFzL0-8" value=":GeneralMember" style="shape=umlActor;verticalLabelPosition=bottom;verticalAlign=top;html=1;outlineConnect=0;" vertex="1" parent="1">
          <mxGeometry x="-770" y="120" width="30" height="60" as="geometry" />
        </mxCell>
        <mxCell id="q8DaPrd-86enB6CMFzL0-9" value=":ApplyUI" style="rounded=0;whiteSpace=wrap;html=1;" vertex="1" parent="1">
          <mxGeometry x="-670" y="140" width="155" height="30" as="geometry" />
        </mxCell>
        <mxCell id="q8DaPrd-86enB6CMFzL0-10" value=": Apply" style="rounded=0;whiteSpace=wrap;html=1;" vertex="1" parent="1">
          <mxGeometry x="-480" y="140" width="155" height="30" as="geometry" />
        </mxCell>
        <mxCell id="q8DaPrd-86enB6CMFzL0-11" value="" style="endArrow=none;html=1;rounded=0;entryX=0;entryY=0.5;entryDx=0;entryDy=0;" edge="1" parent="1" target="q8DaPrd-86enB6CMFzL0-9">
          <mxGeometry width="50" height="50" relative="1" as="geometry">
            <mxPoint x="-740" y="155" as="sourcePoint" />
            <mxPoint x="-690" y="110" as="targetPoint" />
          </mxGeometry>
        </mxCell>
        <mxCell id="q8DaPrd-86enB6CMFzL0-12" value="" style="endArrow=none;html=1;rounded=0;entryX=0;entryY=0.5;entryDx=0;entryDy=0;exitX=1;exitY=0.5;exitDx=0;exitDy=0;" edge="1" parent="1" source="q8DaPrd-86enB6CMFzL0-9" target="q8DaPrd-86enB6CMFzL0-10">
          <mxGeometry width="50" height="50" relative="1" as="geometry">
            <mxPoint x="-530" y="160" as="sourcePoint" />
            <mxPoint x="-480" y="110" as="targetPoint" />
          </mxGeometry>
        </mxCell>
        <mxCell id="q8DaPrd-86enB6CMFzL0-13" value="" style="endArrow=classic;rounded=0;movable=1;resizable=1;rotatable=1;deletable=1;editable=1;locked=0;connectable=1;html=1;verticalAlign=top;" edge="1" parent="1">
          <mxGeometry width="50" height="50" relative="1" as="geometry">
            <mxPoint x="-470" y="175" as="sourcePoint" />
            <mxPoint x="-527" y="175" as="targetPoint" />
          </mxGeometry>
        </mxCell>
        <mxCell id="q8DaPrd-86enB6CMFzL0-14" value="1: startInterface()" style="text;strokeColor=none;fillColor=none;align=left;verticalAlign=middle;spacingLeft=4;spacingRight=4;overflow=hidden;points=[[0,0.5],[1,0.5]];portConstraint=eastwest;rotatable=0;whiteSpace=wrap;html=1;" vertex="1" parent="1">
          <mxGeometry x="-550" y="175" width="110" height="30" as="geometry" />
        </mxCell>
        <mxCell id="q8DaPrd-86enB6CMFzL0-15" value=":Recruitment" style="rounded=0;whiteSpace=wrap;html=1;" vertex="1" parent="1">
          <mxGeometry x="-240" y="140" width="120" height="30" as="geometry" />
        </mxCell>
        <mxCell id="q8DaPrd-86enB6CMFzL0-16" value="2.1.2 *[For RecruitmentLIst]: getRecruitmentInfor()" style="text;strokeColor=none;fillColor=none;align=left;verticalAlign=middle;spacingLeft=4;spacingRight=4;overflow=hidden;points=[[0,0.5],[1,0.5]];portConstraint=eastwest;rotatable=0;whiteSpace=wrap;html=1;" vertex="1" parent="1">
          <mxGeometry x="-363" y="60" width="170" height="40" as="geometry" />
        </mxCell>
        <mxCell id="q8DaPrd-86enB6CMFzL0-17" value="" style="endArrow=none;html=1;rounded=0;entryX=0;entryY=0.5;entryDx=0;entryDy=0;exitX=1;exitY=0.5;exitDx=0;exitDy=0;" edge="1" parent="1" source="q8DaPrd-86enB6CMFzL0-10" target="q8DaPrd-86enB6CMFzL0-15">
          <mxGeometry width="50" height="50" relative="1" as="geometry">
            <mxPoint x="-440" y="190" as="sourcePoint" />
            <mxPoint x="-390" y="140" as="targetPoint" />
          </mxGeometry>
        </mxCell>
        <mxCell id="q8DaPrd-86enB6CMFzL0-18" value="" style="endArrow=classic;html=1;rounded=0;" edge="1" parent="1">
          <mxGeometry width="50" height="50" relative="1" as="geometry">
            <mxPoint x="-320" y="135" as="sourcePoint" />
            <mxPoint x="-240" y="135" as="targetPoint" />
          </mxGeometry>
        </mxCell>
        <mxCell id="q8DaPrd-86enB6CMFzL0-19" value="2 :searchRecruitment()" style="text;strokeColor=none;fillColor=none;align=left;verticalAlign=middle;spacingLeft=4;spacingRight=4;overflow=hidden;points=[[0,0.5],[1,0.5]];portConstraint=eastwest;rotatable=0;whiteSpace=wrap;html=1;" vertex="1" parent="1">
          <mxGeometry x="-760" y="70" width="170" height="30" as="geometry" />
        </mxCell>
        <mxCell id="q8DaPrd-86enB6CMFzL0-20" value="" style="endArrow=classic;html=1;rounded=0;" edge="1" parent="1">
          <mxGeometry width="50" height="50" relative="1" as="geometry">
            <mxPoint x="-725" y="130" as="sourcePoint" />
            <mxPoint x="-645" y="130" as="targetPoint" />
          </mxGeometry>
        </mxCell>
        <mxCell id="q8DaPrd-86enB6CMFzL0-21" value="2.1 :showRecruitments()" style="text;strokeColor=none;fillColor=none;align=left;verticalAlign=middle;spacingLeft=4;spacingRight=4;overflow=hidden;points=[[0,0.5],[1,0.5]];portConstraint=eastwest;rotatable=0;whiteSpace=wrap;html=1;" vertex="1" parent="1">
          <mxGeometry x="-570" y="70" width="170" height="30" as="geometry" />
        </mxCell>
        <mxCell id="q8DaPrd-86enB6CMFzL0-22" value="" style="endArrow=classic;html=1;rounded=0;" edge="1" parent="1">
          <mxGeometry width="50" height="50" relative="1" as="geometry">
            <mxPoint x="-545" y="130" as="sourcePoint" />
            <mxPoint x="-465" y="130" as="targetPoint" />
          </mxGeometry>
        </mxCell>
        <mxCell id="q8DaPrd-86enB6CMFzL0-23" value=":Recruitments" style="rounded=0;whiteSpace=wrap;html=1;" vertex="1" parent="1">
          <mxGeometry x="-590" y="300" width="120" height="60" as="geometry" />
        </mxCell>
        <mxCell id="q8DaPrd-86enB6CMFzL0-24" value="" style="endArrow=classic;html=1;rounded=0;" edge="1" parent="1">
          <mxGeometry width="50" height="50" relative="1" as="geometry">
            <mxPoint x="-469" y="215" as="sourcePoint" />
            <mxPoint x="-511" y="275" as="targetPoint" />
          </mxGeometry>
        </mxCell>
        <mxCell id="q8DaPrd-86enB6CMFzL0-25" value="2.1.1 getRecruitmentList()" style="text;strokeColor=none;fillColor=none;align=left;verticalAlign=middle;spacingLeft=4;spacingRight=4;overflow=hidden;points=[[0,0.5],[1,0.5]];portConstraint=eastwest;rotatable=0;whiteSpace=wrap;html=1;" vertex="1" parent="1">
          <mxGeometry x="-650" y="230" width="150" height="30" as="geometry" />
        </mxCell>
        <mxCell id="q8DaPrd-86enB6CMFzL0-26" value="" style="endArrow=none;html=1;rounded=0;exitX=0.465;exitY=1.033;exitDx=0;exitDy=0;exitPerimeter=0;entryX=0.592;entryY=0;entryDx=0;entryDy=0;entryPerimeter=0;" edge="1" parent="1" source="q8DaPrd-86enB6CMFzL0-10" target="q8DaPrd-86enB6CMFzL0-23">
          <mxGeometry width="50" height="50" relative="1" as="geometry">
            <mxPoint x="-418" y="-190" as="sourcePoint" />
            <mxPoint x="-425" y="-90" as="targetPoint" />
          </mxGeometry>
        </mxCell>
        <mxCell id="q8DaPrd-86enB6CMFzL0-27" value=":GeneralMember" style="rounded=0;whiteSpace=wrap;html=1;" vertex="1" parent="1">
          <mxGeometry x="-350" y="290" width="120" height="60" as="geometry" />
        </mxCell>
        <mxCell id="q8DaPrd-86enB6CMFzL0-28" value="" style="endArrow=none;html=1;rounded=0;exitX=0.5;exitY=1;exitDx=0;exitDy=0;entryX=0.5;entryY=0;entryDx=0;entryDy=0;" edge="1" parent="1" source="q8DaPrd-86enB6CMFzL0-10" target="q8DaPrd-86enB6CMFzL0-27">
          <mxGeometry width="50" height="50" relative="1" as="geometry">
            <mxPoint x="-398" y="181" as="sourcePoint" />
            <mxPoint x="-509" y="310" as="targetPoint" />
          </mxGeometry>
        </mxCell>
        <mxCell id="q8DaPrd-86enB6CMFzL0-29" value="" style="endArrow=classic;html=1;rounded=0;" edge="1" parent="1">
          <mxGeometry width="50" height="50" relative="1" as="geometry">
            <mxPoint x="-350" y="190" as="sourcePoint" />
            <mxPoint x="-290" y="270" as="targetPoint" />
          </mxGeometry>
        </mxCell>
      </root>
    </mxGraphModel>
  </diagram>
  <diagram id="dB99zjkZSuDGRAxzJCxh" name="지원 상세정보 페이지 제공">
    <mxGraphModel dx="2638" dy="-502" grid="1" gridSize="10" guides="1" tooltips="1" connect="1" arrows="1" fold="1" page="1" pageScale="1" pageWidth="827" pageHeight="1169" math="0" shadow="0">
      <root>
        <mxCell id="0" />
        <mxCell id="1" parent="0" />
        <mxCell id="zSIfmhcGHJD3VFdH9A0A-1" value="3.1 :showRecruitmentDetails()" style="text;html=1;strokeColor=none;fillColor=none;align=center;verticalAlign=middle;whiteSpace=wrap;rounded=0;" vertex="1" parent="1">
          <mxGeometry x="-765" y="1340" width="170" height="20" as="geometry" />
        </mxCell>
        <mxCell id="zSIfmhcGHJD3VFdH9A0A-2" style="edgeStyle=orthogonalEdgeStyle;rounded=0;orthogonalLoop=1;jettySize=auto;html=1;exitX=0.5;exitY=1;exitDx=0;exitDy=0;" edge="1" parent="1" source="zSIfmhcGHJD3VFdH9A0A-1" target="zSIfmhcGHJD3VFdH9A0A-1">
          <mxGeometry relative="1" as="geometry" />
        </mxCell>
        <mxCell id="zSIfmhcGHJD3VFdH9A0A-3" value="3.1.1 : getRecruitmentDetails()" style="text;html=1;strokeColor=none;fillColor=none;align=center;verticalAlign=middle;whiteSpace=wrap;rounded=0;" vertex="1" parent="1">
          <mxGeometry x="-558" y="1350" width="170" height="20" as="geometry" />
        </mxCell>
        <mxCell id="zSIfmhcGHJD3VFdH9A0A-4" value="3 : selectRecruitment()" style="text;html=1;strokeColor=none;fillColor=none;align=center;verticalAlign=middle;whiteSpace=wrap;rounded=0;" vertex="1" parent="1">
          <mxGeometry x="-940" y="1350" width="130" height="20" as="geometry" />
        </mxCell>
        <mxCell id="zSIfmhcGHJD3VFdH9A0A-5" value=":GeneralMember" style="shape=umlActor;verticalLabelPosition=bottom;verticalAlign=top;html=1;outlineConnect=0;" vertex="1" parent="1">
          <mxGeometry x="-960" y="1370" width="30" height="60" as="geometry" />
        </mxCell>
        <mxCell id="zSIfmhcGHJD3VFdH9A0A-6" value=":ShowRecruitmentDetailUI" style="rounded=0;whiteSpace=wrap;html=1;" vertex="1" parent="1">
          <mxGeometry x="-860" y="1390" width="155" height="30" as="geometry" />
        </mxCell>
        <mxCell id="zSIfmhcGHJD3VFdH9A0A-7" value=":ShowRecruitmentDetail" style="rounded=0;whiteSpace=wrap;html=1;" vertex="1" parent="1">
          <mxGeometry x="-670" y="1390" width="155" height="30" as="geometry" />
        </mxCell>
        <mxCell id="zSIfmhcGHJD3VFdH9A0A-8" value="" style="endArrow=none;html=1;rounded=0;entryX=0;entryY=0.5;entryDx=0;entryDy=0;" edge="1" parent="1" target="zSIfmhcGHJD3VFdH9A0A-6">
          <mxGeometry width="50" height="50" relative="1" as="geometry">
            <mxPoint x="-930" y="1405" as="sourcePoint" />
            <mxPoint x="-880" y="1360" as="targetPoint" />
          </mxGeometry>
        </mxCell>
        <mxCell id="zSIfmhcGHJD3VFdH9A0A-9" value="" style="endArrow=none;html=1;rounded=0;entryX=0;entryY=0.5;entryDx=0;entryDy=0;exitX=1;exitY=0.5;exitDx=0;exitDy=0;" edge="1" parent="1" source="zSIfmhcGHJD3VFdH9A0A-6" target="zSIfmhcGHJD3VFdH9A0A-7">
          <mxGeometry width="50" height="50" relative="1" as="geometry">
            <mxPoint x="-720" y="1410" as="sourcePoint" />
            <mxPoint x="-670" y="1360" as="targetPoint" />
          </mxGeometry>
        </mxCell>
        <mxCell id="zSIfmhcGHJD3VFdH9A0A-10" value="" style="endArrow=classic;rounded=0;movable=1;resizable=1;rotatable=1;deletable=1;editable=1;locked=0;connectable=1;html=1;verticalAlign=top;" edge="1" parent="1">
          <mxGeometry width="50" height="50" relative="1" as="geometry">
            <mxPoint x="-670" y="1440" as="sourcePoint" />
            <mxPoint x="-727" y="1440" as="targetPoint" />
          </mxGeometry>
        </mxCell>
        <mxCell id="zSIfmhcGHJD3VFdH9A0A-11" value="1: startInterface()" style="text;strokeColor=none;fillColor=none;align=left;verticalAlign=middle;spacingLeft=4;spacingRight=4;overflow=hidden;points=[[0,0.5],[1,0.5]];portConstraint=eastwest;rotatable=0;whiteSpace=wrap;html=1;" vertex="1" parent="1">
          <mxGeometry x="-750" y="1440" width="110" height="30" as="geometry" />
        </mxCell>
        <mxCell id="zSIfmhcGHJD3VFdH9A0A-12" value=":Recruitment" style="rounded=0;whiteSpace=wrap;html=1;" vertex="1" parent="1">
          <mxGeometry x="-430" y="1390" width="120" height="30" as="geometry" />
        </mxCell>
        <mxCell id="zSIfmhcGHJD3VFdH9A0A-13" value="2.1.2 *[For RecruitmentLIst]: getRecruitmentInfor()" style="text;strokeColor=none;fillColor=none;align=left;verticalAlign=middle;spacingLeft=4;spacingRight=4;overflow=hidden;points=[[0,0.5],[1,0.5]];portConstraint=eastwest;rotatable=0;whiteSpace=wrap;html=1;" vertex="1" parent="1">
          <mxGeometry x="-560" y="1310" width="170" height="40" as="geometry" />
        </mxCell>
        <mxCell id="zSIfmhcGHJD3VFdH9A0A-14" value="" style="endArrow=none;html=1;rounded=0;entryX=0;entryY=0.5;entryDx=0;entryDy=0;exitX=1;exitY=0.5;exitDx=0;exitDy=0;" edge="1" parent="1" source="zSIfmhcGHJD3VFdH9A0A-7" target="zSIfmhcGHJD3VFdH9A0A-12">
          <mxGeometry width="50" height="50" relative="1" as="geometry">
            <mxPoint x="-630" y="1440" as="sourcePoint" />
            <mxPoint x="-580" y="1390" as="targetPoint" />
          </mxGeometry>
        </mxCell>
        <mxCell id="zSIfmhcGHJD3VFdH9A0A-15" value="" style="endArrow=classic;html=1;rounded=0;" edge="1" parent="1">
          <mxGeometry width="50" height="50" relative="1" as="geometry">
            <mxPoint x="-513" y="1380" as="sourcePoint" />
            <mxPoint x="-433" y="1380" as="targetPoint" />
          </mxGeometry>
        </mxCell>
        <mxCell id="zSIfmhcGHJD3VFdH9A0A-16" value="2 :searchRecruitment()" style="text;strokeColor=none;fillColor=none;align=left;verticalAlign=middle;spacingLeft=4;spacingRight=4;overflow=hidden;points=[[0,0.5],[1,0.5]];portConstraint=eastwest;rotatable=0;whiteSpace=wrap;html=1;" vertex="1" parent="1">
          <mxGeometry x="-945" y="1330" width="170" height="30" as="geometry" />
        </mxCell>
        <mxCell id="zSIfmhcGHJD3VFdH9A0A-17" value="" style="endArrow=classic;html=1;rounded=0;" edge="1" parent="1">
          <mxGeometry width="50" height="50" relative="1" as="geometry">
            <mxPoint x="-915" y="1380" as="sourcePoint" />
            <mxPoint x="-835" y="1380" as="targetPoint" />
          </mxGeometry>
        </mxCell>
        <mxCell id="zSIfmhcGHJD3VFdH9A0A-18" value="2.1 :showRecruitments()" style="text;strokeColor=none;fillColor=none;align=left;verticalAlign=middle;spacingLeft=4;spacingRight=4;overflow=hidden;points=[[0,0.5],[1,0.5]];portConstraint=eastwest;rotatable=0;whiteSpace=wrap;html=1;" vertex="1" parent="1">
          <mxGeometry x="-760" y="1320" width="170" height="30" as="geometry" />
        </mxCell>
        <mxCell id="zSIfmhcGHJD3VFdH9A0A-19" value="" style="endArrow=classic;html=1;rounded=0;" edge="1" parent="1">
          <mxGeometry width="50" height="50" relative="1" as="geometry">
            <mxPoint x="-735" y="1380" as="sourcePoint" />
            <mxPoint x="-655" y="1380" as="targetPoint" />
          </mxGeometry>
        </mxCell>
        <mxCell id="zSIfmhcGHJD3VFdH9A0A-20" value=":Recruitments" style="rounded=0;whiteSpace=wrap;html=1;" vertex="1" parent="1">
          <mxGeometry x="-670" y="1510" width="120" height="60" as="geometry" />
        </mxCell>
        <mxCell id="zSIfmhcGHJD3VFdH9A0A-21" value="" style="endArrow=classic;html=1;rounded=0;" edge="1" parent="1">
          <mxGeometry width="50" height="50" relative="1" as="geometry">
            <mxPoint x="-588" y="1440" as="sourcePoint" />
            <mxPoint x="-588" y="1500" as="targetPoint" />
          </mxGeometry>
        </mxCell>
        <mxCell id="zSIfmhcGHJD3VFdH9A0A-22" value="2.1.1 getRecruitmentList()" style="text;strokeColor=none;fillColor=none;align=left;verticalAlign=middle;spacingLeft=4;spacingRight=4;overflow=hidden;points=[[0,0.5],[1,0.5]];portConstraint=eastwest;rotatable=0;whiteSpace=wrap;html=1;" vertex="1" parent="1">
          <mxGeometry x="-588" y="1460" width="150" height="30" as="geometry" />
        </mxCell>
        <mxCell id="zSIfmhcGHJD3VFdH9A0A-23" value="" style="endArrow=none;html=1;rounded=0;exitX=0.465;exitY=1.033;exitDx=0;exitDy=0;exitPerimeter=0;entryX=0.592;entryY=0;entryDx=0;entryDy=0;entryPerimeter=0;" edge="1" parent="1" source="zSIfmhcGHJD3VFdH9A0A-7" target="zSIfmhcGHJD3VFdH9A0A-20">
          <mxGeometry width="50" height="50" relative="1" as="geometry">
            <mxPoint x="-608" y="1060" as="sourcePoint" />
            <mxPoint x="-615" y="1160" as="targetPoint" />
          </mxGeometry>
        </mxCell>
      </root>
    </mxGraphModel>
  </diagram>
</mxfile>
